<svg width="25" height="16" viewBox="0 0 25 16" fill="none" xmlns="http://www.w3.org/2000/svg">
<path d="M0.777832 0V14.956H8.55683C8.55683 14.956 13.3068 15.102 13.3068 10.538C13.3068 10.538 13.5138 6.825 10.5068 6.825C10.5068 6.825 12.7888 6.659 12.7888 3.983C12.7888 1.307 10.9218 0.000999928 8.55583 0.000999928H0.777832V0ZM16.4298 0.882V2.717H22.6018V0.882H16.4298ZM4.20083 2.656H8.55683C8.55683 2.656 9.61383 2.656 9.61383 4.212C9.61383 5.767 8.99383 5.997 8.28783 5.997H4.20083V2.656ZM19.6458 3.807C13.8958 3.807 13.9008 9.553 13.9008 9.553C13.9008 9.553 13.5048 15.267 19.6458 15.267C19.6458 15.267 24.7578 15.552 24.7578 11.284H22.1228C22.1228 11.284 22.2128 12.892 19.7278 12.892C19.7278 12.892 17.1038 13.067 17.1038 10.289H24.8518C24.8508 10.29 25.6958 3.807 19.6458 3.807ZM19.6958 5.996C22.0058 5.996 21.9778 8.299 21.9778 8.299H17.0718C17.0718 8.298 17.3868 5.996 19.6958 5.996ZM4.20083 8.298H8.55683C8.55683 8.298 10.1338 8.277 10.1338 10.351C10.1338 12.039 9.04683 12.264 8.41383 12.29H4.20083V8.298Z" fill="#FF2E5D"/>
</svg>
