<svg width="21" height="21" viewBox="0 0 21 21" fill="none" xmlns="http://www.w3.org/2000/svg">
<path d="M15.3543 5.92955C16.0293 5.92955 16.5765 5.38234 16.5765 4.70733C16.5765 4.03231 16.0293 3.48511 15.3543 3.48511C14.6793 3.48511 14.1321 4.03231 14.1321 4.70733C14.1321 5.38234 14.6793 5.92955 15.3543 5.92955Z" fill="#FF2E5D"/>
<path d="M10.0246 4.8613C7.1776 4.8613 4.86108 7.17782 4.86108 10.0248C4.86108 12.8726 7.1776 15.1891 10.0246 15.1891C12.8723 15.1891 15.1889 12.8726 15.1889 10.0248C15.1889 7.17782 12.8723 4.8613 10.0246 4.8613ZM10.0246 13.0078C8.38108 13.0078 7.04316 11.6683 7.04316 10.0248C7.04316 8.3813 8.3819 7.04419 10.0246 7.04419C11.6689 7.04419 13.0068 8.38211 13.0068 10.0248C13.0068 11.6683 11.668 13.0078 10.0246 13.0078Z" fill="#FF2E5D"/>
<path d="M14.9918 0H5.05756C2.26844 0 0 2.26844 0 5.05756V14.9918C0 17.7809 2.26844 20.0493 5.05756 20.0493H14.9918C17.7809 20.0493 20.0493 17.7809 20.0493 14.9918V5.05756C20.0493 2.26844 17.7809 0 14.9918 0ZM17.8689 14.9918C17.8689 16.5774 16.5782 17.8673 14.9926 17.8673H5.05756C3.47274 17.8673 2.18207 16.5774 2.18207 14.9918V5.05756C2.18207 3.47193 3.47274 2.18207 5.05756 2.18207H14.9918C16.5774 2.18207 17.8681 3.47193 17.8681 5.05756V14.9918H17.8689Z" fill="#FF2E5D"/>
</svg>
