<svg width="110" height="77" viewBox="0 0 110 77" fill="none" xmlns="http://www.w3.org/2000/svg">
<path d="M55.001 0L24.813 52.1447H34.9728L42.3855 39.3391H77.7724L55.001 0ZM55.001 17.5482L62.5366 30.5646H47.4654L55.001 17.5482Z" fill="url(#paint0_linear)"/>
<path d="M80.1078 43.3729H69.9487L75.0306 52.1447H85.1897L80.1078 43.3729Z" fill="url(#paint1_linear)"/>
<path d="M6.7411 76.8612L6.12668 75.2609H2.28409L1.66967 76.8612H0L3.28993 68.5109H5.12085L8.41077 76.8612H6.7411ZM4.20669 69.9886L2.69891 73.9732H5.71251L4.20669 69.9886Z" fill="black"/>
<path d="M15.6831 76.8612V68.5109H19.3618C21.1186 68.5109 22.0985 69.713 22.0985 71.1272C22.0985 72.5415 21.1069 73.7436 19.3618 73.7436H17.1512V76.8612H15.6831ZM20.5933 71.1272C20.5933 70.3271 19.9886 69.7993 19.1609 69.7993H17.1512V72.4552H19.1609C19.9886 72.4552 20.5933 71.9313 20.5933 71.1272Z" fill="black"/>
<path d="M30.7207 76.8612V68.5109H32.1908V75.5728H35.8819V76.8612H30.7207Z" fill="black"/>
<path d="M50.3855 76.8612L49.7691 75.2609H45.9285L45.3121 76.8612H43.6431L46.933 68.5109H48.7659L52.0558 76.8612H50.3855ZM47.8485 69.9886L46.3433 73.9732H49.3549L47.8485 69.9886Z" fill="black"/>
<path d="M61.6668 76.8612V73.3928L58.4146 68.5109H60.0985L62.4099 72.0927L64.6947 68.5109H66.3773L63.1381 73.3928V76.8612H61.6668Z" fill="black"/>
<path d="M74.0747 76.8612V68.5109H79.8119V69.8032H75.5441V71.9663H79.7261V73.2547H75.5441V75.5722H79.8119V76.8606H74.0747V76.8612Z" fill="black"/>
<path d="M93.3579 76.8612L91.5004 73.7436H90.0427V76.8612H88.5732V68.5109H92.252C93.9067 68.5109 94.9899 69.5905 94.9899 71.1272C94.9899 72.6167 94.0094 73.4207 93.0062 73.5822L95.053 76.8612H93.3579ZM93.4795 71.1272C93.4795 70.3271 92.8788 69.7993 92.0498 69.7993H90.042V72.4552H92.0498C92.8794 72.4552 93.4795 71.9313 93.4795 71.1272Z" fill="black"/>
<path d="M103.36 75.6753L104.178 74.5483C104.755 75.1585 105.66 75.6986 106.824 75.6986C108.03 75.6986 108.508 75.1118 108.508 74.5594C108.508 72.806 103.624 73.8941 103.624 70.816C103.624 69.4368 104.84 68.3728 106.674 68.3728C107.982 68.3728 109.033 68.7865 109.812 69.5393L108.97 70.6267C108.318 69.977 107.429 69.6774 106.548 69.6774C105.682 69.6774 105.129 70.0911 105.129 70.7136C105.129 72.2665 110 71.3049 110 74.4225C110 75.8134 109.021 77 106.761 77C105.22 76.9994 104.102 76.4631 103.36 75.6753Z" fill="black"/>
<defs>
<linearGradient id="paint0_linear" x1="39.9889" y1="26.1237" x2="81.1663" y2="51.8124" gradientUnits="userSpaceOnUse">
<stop stop-color="#FF038E"/>
<stop offset="1" stop-color="#FF582C"/>
</linearGradient>
<linearGradient id="paint1_linear" x1="40.7149" y1="24.8914" x2="82.0974" y2="50.708" gradientUnits="userSpaceOnUse">
<stop stop-color="#FF038E"/>
<stop offset="1" stop-color="#FF582C"/>
</linearGradient>
</defs>
</svg>
